<svg id="instagram-sketched" xmlns="http://www.w3.org/2000/svg" width="30.994" height="31" viewBox="0 0 30.994 31">
  <path id="Path_13" data-name="Path 13" d="M31.364,9.114a11.328,11.328,0,0,0-.721-3.761A7.941,7.941,0,0,0,26.107.818,11.357,11.357,0,0,0,22.347.1C20.687.018,20.16,0,15.952,0S11.216.018,9.563.091A11.331,11.331,0,0,0,5.8.811,7.564,7.564,0,0,0,3.053,2.6,7.632,7.632,0,0,0,1.266,5.347,11.358,11.358,0,0,0,.546,9.108c-.079,1.659-.1,2.186-.1,6.4s.018,4.736.091,6.389a11.327,11.327,0,0,0,.721,3.761A7.94,7.94,0,0,0,5.8,30.189a11.358,11.358,0,0,0,3.761.721c1.653.073,2.18.091,6.389.091s4.736-.018,6.389-.091a11.325,11.325,0,0,0,3.761-.721,7.929,7.929,0,0,0,4.536-4.536,11.366,11.366,0,0,0,.721-3.761c.073-1.653.091-2.18.091-6.389s-.006-4.736-.079-6.389ZM28.572,21.771a8.5,8.5,0,0,1-.533,2.877A5.142,5.142,0,0,1,25.1,27.591a8.527,8.527,0,0,1-2.877.533c-1.635.073-2.125.091-6.262.091S11.325,28.2,9.7,28.123a8.492,8.492,0,0,1-2.877-.533,4.77,4.77,0,0,1-1.78-1.157,4.82,4.82,0,0,1-1.157-1.78,8.528,8.528,0,0,1-.533-2.877c-.073-1.635-.091-2.126-.091-6.262s.018-4.633.091-6.262a8.493,8.493,0,0,1,.533-2.877A4.712,4.712,0,0,1,5.045,4.6,4.812,4.812,0,0,1,6.825,3.44,8.533,8.533,0,0,1,9.7,2.907c1.635-.073,2.126-.091,6.262-.091s4.633.018,6.262.091A8.5,8.5,0,0,1,25.1,3.44,4.767,4.767,0,0,1,26.882,4.6a4.819,4.819,0,0,1,1.157,1.781,8.531,8.531,0,0,1,.533,2.877c.073,1.635.091,2.125.091,6.262s-.018,4.621-.091,6.256Zm0,0" transform="translate(-0.449 0)" fill="#fff"/>
  <path id="Path_14" data-name="Path 14" d="M132.912,124.5a7.963,7.963,0,1,0,7.963,7.963A7.965,7.965,0,0,0,132.912,124.5Zm0,13.129a5.166,5.166,0,1,1,5.166-5.166A5.167,5.167,0,0,1,132.912,137.629Zm0,0" transform="translate(-117.409 -116.96)" fill="#fff"/>
  <path id="Path_15" data-name="Path 15" d="M366.168,90.461a1.859,1.859,0,1,1-1.859-1.859,1.859,1.859,0,0,1,1.859,1.859Zm0,0" transform="translate(-340.527 -83.236)" fill="#fff"/>
</svg>
