<svg id="reward" xmlns="http://www.w3.org/2000/svg" width="42" height="42" viewBox="0 0 42 42">
  <g id="Group_151" data-name="Group 151">
    <g id="Group_150" data-name="Group 150">
      <path id="Path_21" data-name="Path 21" d="M304.8,105.6a13.419,13.419,0,0,0-2.586-1.443l-1.032,2.461a10.79,10.79,0,0,1,2.067,1.153Z" transform="translate(-276.061 -95.472)" fill="#044122"/>
      <path id="Path_22" data-name="Path 22" d="M350.858,147.554a13.331,13.331,0,0,0-1.718-2.4l-1.989,1.78a10.808,10.808,0,0,1,1.376,1.928Z" transform="translate(-318.195 -133.044)" fill="#044122"/>
      <path id="Path_23" data-name="Path 23" d="M115.7,102.1a10.661,10.661,0,1,1-8.391-7.506l.46-2.631a13.668,13.668,0,0,0-2.317-.2,13.332,13.332,0,1,0,12.812,9.588Z" transform="translate(-84.457 -84.106)" fill="#044122"/>
      <path id="Path_24" data-name="Path 24" d="M42,21l-3.419-4.711.607-5.79-5.317-2.37L31.5,2.812l-5.79.607L21,0,16.289,3.419,10.5,2.812,8.129,8.129,2.812,10.5l.607,5.79L0,21l3.419,4.711L2.812,31.5l5.317,2.37,2.37,5.317,5.79-.607L21,42l4.711-3.419,5.79.607,2.37-5.317,5.317-2.37-.607-5.79ZM31.848,31.848l-2,4.483-4.874-.516L21,38.7l-3.972-2.889-4.879.511-2-4.483-4.483-2,.522-4.869L3.3,21l2.889-3.972-.516-4.879,4.483-2,2-4.483,4.879.511L21,3.3l3.972,2.889,4.879-.511,2,4.483,4.483,2-.522,4.869L38.7,21l-2.889,3.972.511,4.879Z" fill="#044122"/>
      <path id="Path_25" data-name="Path 25" d="M162.335,196.452l-1.887,1.887,4.947,4.947,8.951-8.951-1.887-1.887-7.064,7.064Z" transform="translate(-147.065 -176.395)" fill="#044122"/>
    </g>
  </g>
</svg>
