<svg xmlns="http://www.w3.org/2000/svg" width="673.444" height="181.932" viewBox="0 0 673.444 181.932">
  <g id="Group_61" data-name="Group 61" transform="translate(-934 -4886.27)">
    <path id="garden" d="M161.853,137.05a30.466,30.466,0,0,0,12.7-58.163,40.646,40.646,0,0,0-28.217-51.005,32.574,32.574,0,0,0-64.467,0A40.66,40.66,0,0,0,53.652,78.887a30.467,30.467,0,0,0,12.7,58.163h42.423v34.227H64.831v10.656h98.542V171.276H119.43V137.049h42.423Zm-95.5-10.656a19.814,19.814,0,0,1-4.544-39.1l6.408-1.5L65.41,79.835A29.974,29.974,0,0,1,87.714,37.5l4.425-.715.053-4.482a21.912,21.912,0,0,1,43.82,0l.053,4.482,4.425.715a29.974,29.974,0,0,1,22.3,42.331l-2.805,5.955,6.408,1.5a19.814,19.814,0,0,1-4.544,39.1H119.43V96.76l19.514-19.514-7.535-7.535L119.43,81.69V46.382H108.774v16.09L96.794,50.493,89.26,58.028l19.514,19.514v23.367L96.794,88.929l-7.535,7.535,19.514,19.514v10.415H66.351Z" transform="translate(1070.12 4886.27)" fill="#fff" opacity="0.14"/>
    <path id="garden-2" data-name="garden" d="M161.853,137.05a30.466,30.466,0,0,0,12.7-58.163,40.646,40.646,0,0,0-28.217-51.005,32.574,32.574,0,0,0-64.467,0A40.66,40.66,0,0,0,53.652,78.887a30.467,30.467,0,0,0,12.7,58.163h42.423v34.227H64.831v10.656h98.542V171.276H119.43V137.049h42.423Zm-95.5-10.656a19.814,19.814,0,0,1-4.544-39.1l6.408-1.5L65.41,79.835A29.974,29.974,0,0,1,87.714,37.5l4.425-.715.053-4.482a21.912,21.912,0,0,1,43.82,0l.053,4.482,4.425.715a29.974,29.974,0,0,1,22.3,42.331l-2.805,5.955,6.408,1.5a19.814,19.814,0,0,1-4.544,39.1H119.43V96.76l19.514-19.514-7.535-7.535L119.43,81.69V46.382H108.774v16.09L96.794,50.493,89.26,58.028l19.514,19.514v23.367L96.794,88.929l-7.535,7.535,19.514,19.514v10.415H66.351Z" transform="translate(898.12 4886.27)" fill="#fff" opacity="0.14"/>
    <path id="garden-3" data-name="garden" d="M161.853,137.05a30.466,30.466,0,0,0,12.7-58.163,40.646,40.646,0,0,0-28.217-51.005,32.574,32.574,0,0,0-64.467,0A40.66,40.66,0,0,0,53.652,78.887a30.467,30.467,0,0,0,12.7,58.163h42.423v34.227H64.831v10.656h98.542V171.276H119.43V137.049h42.423Zm-95.5-10.656a19.814,19.814,0,0,1-4.544-39.1l6.408-1.5L65.41,79.835A29.974,29.974,0,0,1,87.714,37.5l4.425-.715.053-4.482a21.912,21.912,0,0,1,43.82,0l.053,4.482,4.425.715a29.974,29.974,0,0,1,22.3,42.331l-2.805,5.955,6.408,1.5a19.814,19.814,0,0,1-4.544,39.1H119.43V96.76l19.514-19.514-7.535-7.535L119.43,81.69V46.382H108.774v16.09L96.794,50.493,89.26,58.028l19.514,19.514v23.367L96.794,88.929l-7.535,7.535,19.514,19.514v10.415H66.351Z" transform="translate(1243.12 4886.27)" fill="#fff" opacity="0.14"/>
    <path id="garden-4" data-name="garden" d="M161.853,137.05a30.466,30.466,0,0,0,12.7-58.163,40.646,40.646,0,0,0-28.217-51.005,32.574,32.574,0,0,0-64.467,0A40.66,40.66,0,0,0,53.652,78.887a30.467,30.467,0,0,0,12.7,58.163h42.423v34.227H64.831v10.656h98.542V171.276H119.43V137.049h42.423Zm-95.5-10.656a19.814,19.814,0,0,1-4.544-39.1l6.408-1.5L65.41,79.835A29.974,29.974,0,0,1,87.714,37.5l4.425-.715.053-4.482a21.912,21.912,0,0,1,43.82,0l.053,4.482,4.425.715a29.974,29.974,0,0,1,22.3,42.331l-2.805,5.955,6.408,1.5a19.814,19.814,0,0,1-4.544,39.1H119.43V96.76l19.514-19.514-7.535-7.535L119.43,81.69V46.382H108.774v16.09L96.794,50.493,89.26,58.028l19.514,19.514v23.367L96.794,88.929l-7.535,7.535,19.514,19.514v10.415H66.351Z" transform="translate(1415.12 4886.27)" fill="#fff" opacity="0.14"/>
  </g>
</svg>
