<svg id="twitter_1_" data-name="twitter (1)" xmlns="http://www.w3.org/2000/svg" width="32.912" height="26.742" viewBox="0 0 32.912 26.742">
  <g id="Group_76" data-name="Group 76" transform="translate(0 0)">
    <path id="Path_16" data-name="Path 16" d="M32.912,51.166a14.068,14.068,0,0,1-3.888,1.066A6.71,6.71,0,0,0,31.993,48.5a13.484,13.484,0,0,1-4.279,1.633,6.747,6.747,0,0,0-11.672,4.614,6.948,6.948,0,0,0,.156,1.539A19.1,19.1,0,0,1,2.292,49.23a6.749,6.749,0,0,0,2.073,9.018,6.663,6.663,0,0,1-3.049-.831v.074a6.778,6.778,0,0,0,5.406,6.63,6.734,6.734,0,0,1-1.769.222,5.966,5.966,0,0,1-1.277-.115,6.812,6.812,0,0,0,6.3,4.7,13.558,13.558,0,0,1-8.366,2.878A12.64,12.64,0,0,1,0,71.714a19,19,0,0,0,10.351,3.028c12.416,0,19.2-10.285,19.2-19.2,0-.3-.01-.586-.025-.872A13.461,13.461,0,0,0,32.912,51.166Z" transform="translate(0 -48)" fill="#fff"/>
  </g>
</svg>
